<?xml version="1.0" encoding="UTF-8"?>
<svg id="Layer_1" xmlns="http://www.w3.org/2000/svg" version="1.1" viewBox="0 0 500 500">
  <!-- Generator: Adobe Illustrator 29.3.0, SVG Export Plug-In . SVG Version: 2.1.0 Build 146)  -->
  <defs>
    <style>
      .st0, .st1 {
        fill: none;
      }

      .st2 {
        font-family: Montserrat-Bold, Montserrat;
        font-size: 105.4px;
        font-weight: 700;
      }

      .st2, .st3, .st4 {
        isolation: isolate;
      }

      .st2, .st5, .st4 {
        fill: #59364c;
      }

      .st6 {
        fill: #cf4c30;
      }

      .st7 {
        fill: #c2412d;
      }

      .st1 {
        stroke: #e8e6dd;
      }

      .st1, .st8 {
        stroke-linecap: round;
        stroke-linejoin: round;
        stroke-width: 1.6px;
      }

      .st8 {
        fill: #e8e6dd;
        stroke: #cf4c30;
      }

      .st4 {
        mix-blend-mode: multiply;
        opacity: .2;
      }
    </style>
  </defs>
  <g class="st3">
    <g id="OBJECTS">
      <g class="st3">
        <text class="st2" transform="translate(27 482.8)"><tspan x="0" y="0">ALBABA</tspan></text>
      </g>
      <g>
        <path class="st6" d="M250.9,196.1h2.2c3.6,0,6.5-2.9,6.5-6.5v-30.7c0-3.6-2.9-6.5-6.5-6.5H94.3c-3.6,0-6.5,2.9-6.5,6.5v30.7c0,3.6,2.9,6.5,6.5,6.5h156.5Z"/>
        <rect class="st5" x="95" y="7.9" width="157.6" height="144.5" rx="3.6" ry="3.6"/>
        <g>
          <path class="st6" d="M495,270.8c-3-20.4-16.8-74-78.9-76.5-2.8-.1-5.2-1.9-6.2-4.5l-44.4-121.4c-.4-1.2-.5-2.4-.3-3.6l6.7-5.5c3.9,0,7-3.2,6.8-7.1l-1.3-29.5c-.2-3.6-3.2-6.5-6.8-6.5h-30c-2.4,0-4.7,1.3-5.9,3.5l-15.9,28.2c-.5,1-.9,2.1-.9,3.3l-4.6,207.7c0,3.7-3.1,6.7-6.8,6.7h-48.6c-3.8,0-6.8-3-6.8-6.8v-63.2c0-3.8-3-6.8-6.8-6.8h-113.2c-.4,0-.7,0-1.1,0-6.6,1.1-66.7,13.8-69.9,99.6-.1,3.9,2.9,7.1,6.8,7.1h7.2c-.1-1.8-.2-3.5-.2-5.3,0-46.8,38-84.8,84.8-84.8s84.8,38,84.8,84.8,0,3.5-.2,5.3h70.5c-.1-1.8-.2-3.5-.2-5.3,0-46.8,38-84.8,84.8-84.8s78.4,31.9,84,73.2c.1,0,.2,0,.4,0h5.6c4.1,0,7.4-3.7,6.7-7.8h0Z"/>
          <path class="st6" d="M158.5,205.4c-46.8,0-84.8,38-84.8,84.8s0,3.5.2,5.3h169.2c.1-1.8.2-3.5.2-5.3,0-46.8-38-84.8-84.8-84.8Z"/>
          <path class="st4" d="M158.5,205.4c-46.8,0-84.8,38-84.8,84.8s0,3.5.2,5.3h169.2c.1-1.8.2-3.5.2-5.3,0-46.8-38-84.8-84.8-84.8Z"/>
          <path class="st6" d="M398.2,205.4c-46.8,0-84.8,38-84.8,84.8s0,3.5.2,5.3h155.4c3.8,0,6.8-3,6.8-6.8v-3.2c0-3.6,2.9-6.6,6.5-6.8-5.6-41.4-41.1-73.2-84-73.2h0Z"/>
          <path class="st4" d="M398.2,205.4c-46.8,0-84.8,38-84.8,84.8s0,3.5.2,5.3h155.4c3.8,0,6.8-3,6.8-6.8v-3.2c0-3.6,2.9-6.6,6.5-6.8-5.6-41.4-41.1-73.2-84-73.2h0Z"/>
        </g>
        <g>
          <g>
            <path class="st0" d="M80.4,298.2h-.3.3Z"/>
            <path class="st0" d="M84.4,264.5s0-.3.1-.4h-1c.3.1.6.2.9.4h0Z"/>
            <g>
              <path class="st5" d="M162.6,213c-.6-.1-1.2-.2-1.8-.2h-60.3c-4.8,0-8.7,3.9-8.7,8.7s2.9,7.6,6.8,8.5h8.3c.6,0,1.1,0,1.7.2,0,0,.1,0,.2,0,3.9.9,6.8,4.3,6.8,8.5s-2.4,6.9-5.7,8.1c-.9.4-2,.5-3,.5h-51.4c-3.3,1.2-5.7,4.4-5.7,8.1s2.3,6.8,5.5,8.1h25c1.1,0,2.2.2,3.1.6h1s0,.3-.1.4c2.8,1.5,4.6,4.3,4.6,7.7s-3.8,8.5-8.4,8.7h0c-.1,0-.3,0-.4,0H26.4c-4.8,0-8.7,3.9-8.7,8.7s3.9,8.7,8.7,8.7h62.9c4.8,0,8.7,3.9,8.7,8.7s-3.9,8.7-8.7,8.7h-9.2c-4.8,0-8.7,3.9-8.7,8.7s3.9,8.7,8.7,8.7h39c4.8,0,8.7,3.9,8.7,8.7s-3.7,8.5-8.3,8.7h-18.8c-4.6.2-8.3,4-8.3,8.7s3.9,8.7,8.7,8.7h53.8c.7,0,1.3,0,2-.2h.6c42.7,0,77.3-34.6,77.3-77.3s-31.8-74.3-72-77.1h0Z"/>
              <path class="st5" d="M65.6,323.6c0-4.8-3.9-8.7-8.7-8.7H16.9c-4.8,0-8.7,3.9-8.7,8.7s3.9,8.7,8.7,8.7h40c4.8,0,8.7-3.9,8.7-8.7Z"/>
              <path class="st5" d="M76.7,350.2h-14.6c-4.8,0-8.7,3.9-8.7,8.7s3.9,8.7,8.7,8.7h14.6c4.8,0,8.7-3.9,8.7-8.7s-3.9-8.7-8.7-8.7Z"/>
              <path class="st5" d="M42.7,230h36.1c3.8-.9,6.6-4.3,6.6-8.4s-3.9-8.7-8.7-8.7h-32c-4.8,0-8.7,3.9-8.7,8.7s2.8,7.5,6.6,8.4h0Z"/>
              <path class="st5" d="M23.4,264.1h9.9c1.1,0,2.2-.2,3.1-.6,3.2-1.3,5.5-4.4,5.5-8.1s-3.9-8.7-8.7-8.7H10.8c-4.8,0-8.7,3.9-8.7,8.7s3.9,8.7,8.7,8.7h12.6Z"/>
            </g>
          </g>
          <circle class="st5" cx="158.5" cy="290.2" r="77.4" transform="translate(-158.8 197.1) rotate(-45)"/>
          <circle class="st8" cx="158.5" cy="290.2" r="34.5"/>
        </g>
        <circle class="st5" cx="398.3" cy="290.2" r="77.4"/>
        <circle class="st8" cx="398.2" cy="290.2" r="34.5"/>
        <path class="st6" d="M391.9,66.1c-16.5,0-29.8-13.3-29.8-29.8s13.3-29.8,29.8-29.8"/>
        <path class="st5" d="M388.5,12.1c11.2,2.4,19.6,12.3,19.6,24.2s-8.4,21.8-19.6,24.2V12.1M383.4,6.4v59.7c16.5,0,29.8-13.3,29.8-29.8s-13.3-29.8-29.8-29.8h0Z"/>
        <rect class="st7" x="379" y="3.7" width="16.2" height="66.2"/>
        <path class="st7" d="M341.5,43.7h-57.1c-3.8,0-6.9-3.1-6.9-6.9s3.1-6.9,6.9-6.9h57.1c3.8,0,6.9,3.1,6.9,6.9s-3.1,6.9-6.9,6.9Z"/>
        <path class="st5" d="M307.7,46.8h-22.1c-5.5,0-10-4.5-10-10s4.5-10,10-10h22.1c5.5,0,10,4.5,10,10s-4.5,10-10,10Z"/>
        <polygon class="st1" points="201.6 43.1 164.5 43.1 136.8 89.5 169.7 80.7 145 130.9 211.3 62.3 176.2 62.3 201.6 43.1"/>
      </g>
    </g>
  </g>
</svg>